<svg t="1660284742612" class="icon" viewBox="0 0 1024 1024" version="1.1" xmlns="http://www.w3.org/2000/svg" p-id="4726" width="200" height="200"><path d="M613.262222 91.022222C613.262222 40.903111 568.035556 0 512.227556 0c-55.751111 0-101.148444 40.732444-101.148445 91.022222 0 5.176889 0.398222 10.24 1.308445 15.075556-139.605333 43.804444-254.293333 178.346667-254.293334 337.464889V568.888889s0 157.923556-49.322666 159.459555c-29.240889 0-51.825778 20.48-51.825778 45.624889 0 25.258667 22.584889 45.454222 50.517333 45.454223h809.187556c28.103111 0 50.517333-20.366222 50.517333-45.511112 0-25.315556-22.584889-45.397333-50.517333-45.397333-50.631111 0-50.631111-158.208-50.631111-158.208V443.676444c0-159.345778-107.121778-293.944889-254.293334-337.578666 1.024-5.006222 1.649778-9.898667 1.649778-15.018667z m50.517334 779.377778c-0.113778 75.434667-50.232889 153.6-151.608889 153.6s-151.552-77.937778-151.665778-153.6h303.274667z" p-id="4727"></path></svg>
