<svg t="1660273904673" class="icon" viewBox="0 0 1024 1024" version="1.1" xmlns="http://www.w3.org/2000/svg" p-id="2533" width="200" height="200"><path d="M595.590747 733.833404a17.049549 17.049549 0 0 1-17.083683-16.725283l-0.494931-35.106028a16.895949 16.895949 0 0 1 17.083682-16.725283h411.936897c9.284239 0 16.844749 7.441044 16.964216 16.725283v35.123094a16.861816 16.861816 0 0 1-16.964216 16.725283c-6.195181-0.1024-143.342503-0.1024-411.441965 0z m-0.819198 153.855538a17.049549 17.049549 0 0 1-17.083682-16.725283l0.341332-35.071895a16.895949 16.895949 0 0 1 17.066616-16.725283h411.936897c9.284239 0 16.844749 7.441044 16.964216 16.725283l-0.341332 34.952429a17.049549 17.049549 0 0 1-16.947149 16.844749H594.771549zM595.112881 1024a17.049549 17.049549 0 0 1-17.100748-16.725283v-34.59403a16.895949 16.895949 0 0 1 17.083682-16.725283h411.936897c9.284239 0 16.844749 7.441044 16.964216 16.725283v34.474564c-0.119466 9.284239-7.679977 16.725283-16.964216 16.844749H595.112881z m-91.391725-297.91484c-119.978307 0-217.667614-96.085045-217.667614-214.20309s97.569841-214.203091 217.667614-214.203091c119.978307 0 217.667614 96.085045 217.667613 214.203091 0 25.002592-4.33492 49.783317-12.987694 73.181647h-83.711749a136.959589 136.959589 0 0 0 21.299136-73.181647c0-77.021636-63.880342-139.792647-142.267306-139.792648-78.250432 0-142.130774 62.771012-142.130774 139.792648 0 77.141102 63.760875 139.912114 142.130774 139.912113v74.290977zM511.998464 972.800154v34.474563c-0.119466 9.796237-7.321578 16.605817-17.220215 16.605817h-85.281877c-33.791899 0.375466-49.441985-34.474563-51.302247-68.164062l-17.407947-68.266462c-31.044174-12.987694-60.415819-28.023383-87.551738-47.95719l-71.04832 28.620714c-30.207909 15.359954-67.105932 4.710386-84.445613-24.40526L8.584508 692.310328a62.105414 62.105414 0 0 1 20.684738-84.20668l60.927817-46.421194a371.318353 371.318353 0 0 1 0-99.430102l-60.808351-46.438261a62.003014 62.003014 0 0 1-20.804204-83.831215l89.036532-151.671012a64.34114 64.34114 0 0 1 84.309081-24.524726l71.20192 28.603647a409.649971 409.649971 0 0 1 87.53467-49.527318l10.410636-75.024841A63.044078 63.044078 0 0 1 414.684623 0.003072h177.919466c34.184431 0 62.037147 26.128988 63.658476 59.681954l10.393568 75.161375a419.019543 419.019543 0 0 1 87.654137 49.527318l71.20192-28.467115a64.528873 64.528873 0 0 1 84.309081 24.388194l88.780533 151.551545a62.088347 62.088347 0 0 1-20.565271 84.206681 1143.036571 1143.036571 0 0 1-56.541697 45.055865c0 21.964734 0.409599 61.781148 1.211729 119.500441h-86.596007l-0.95573-149.844884 92.876521-70.689921-79.359762-135.457727-107.485544 45.448397-17.578614-14.745556a338.123786 338.123786 0 0 0-104.259954-58.931023l-21.418602-7.679977-15.837819-114.397523h-156.87633l-15.854885 114.397523-21.418603 7.679977a343.056037 343.056037 0 0 0-104.37942 59.05049l-17.459148 14.506623-108.338875-43.588136-78.489364 133.460933 92.859455 70.706988-4.095988 22.169533a325.801689 325.801689 0 0 0-5.683183 59.05049c0.119466 19.831407 1.979727 39.765214 5.563717 59.204089l3.976521 22.152467-92.739988 70.706988 79.615761 135.457727 97.689307-47.80359 153.019274 84.906412L426.665387 955.716472c43.946535-0.085333 66.6622-0.085333 68.112862 0C496.962776 955.904204 511.998464 964.198579 511.998464 972.800154z" p-id="2534"></path></svg>
