<svg t="1660201710388" class="icon" viewBox="0 0 1024 1024" version="1.1" xmlns="http://www.w3.org/2000/svg" p-id="1179" width="200" height="200"><path d="M170.666667 128a42.666667 42.666667 0 0 0-42.666667 42.666667v597.333333a42.666667 42.666667 0 0 0 42.666667 42.666667h161.664a213.333333 213.333333 0 0 1 118.314666 35.84l61.354667 40.874666 61.354667-40.874666A213.333333 213.333333 0 0 1 691.626667 810.666667H853.333333a42.666667 42.666667 0 0 0 42.666667-42.666667V170.666667a42.666667 42.666667 0 0 0-42.666667-42.666667h-161.664c-17.706667 0-44.672 7.68-67.413333 20.906667-11.008 6.4-18.944 12.928-23.637333 18.346666a23.978667 23.978667 0 0 0-3.413334 4.821334V682.666667a42.666667 42.666667 0 0 1-85.333333 0V170.666667c0-24.746667 11.861333-44.970667 24.192-59.221334a178.688 178.688 0 0 1 45.354667-36.352c32.384-18.773333 74.026667-32.426667 110.250666-32.426666H853.333333a128 128 0 0 1 128 128v597.333333a128 128 0 0 1-128 128h-161.664a128 128 0 0 0-70.997333 21.504l-84.992 56.661333a42.666667 42.666667 0 0 1-47.36 0l-84.992-56.661333A128 128 0 0 0 332.330667 896H170.666667a128 128 0 0 1-128-128V170.666667a128 128 0 0 1 128-128h161.664a213.333333 213.333333 0 0 1 118.314666 35.84 42.666667 42.666667 0 0 1-47.317333 70.997333A128 128 0 0 0 332.330667 128H170.666667z" fill="#1296db" p-id="1180"></path><path d="M213.333333 384a42.666667 42.666667 0 0 1 42.666667-42.666667h128a42.666667 42.666667 0 0 1 0 85.333334H256a42.666667 42.666667 0 0 1-42.666667-42.666667zM256 554.666667a42.666667 42.666667 0 0 1 42.666667-42.666667h85.333333a42.666667 42.666667 0 0 1 0 85.333333H298.666667a42.666667 42.666667 0 0 1-42.666667-42.666666z" fill="#1296db" p-id="1181"></path></svg>
