<svg t="1660284416989" class="icon" viewBox="0 0 1024 1024" version="1.1" xmlns="http://www.w3.org/2000/svg" p-id="9132" width="200" height="200"><path d="M512 32a480 480 0 1 0 480 480A480 480 0 0 0 512 32z m-70.72 288l-116.8 165.12a252.48 252.48 0 0 0 39.36 12.8s246.08-112.96 246.08 42.24-168 341.12-186.24 344.64a38.4 38.4 0 0 1-39.68-24.96c-8.96-16 9.92-136.96 0-157.12s-32-17.92-45.12-35.52A109.12 109.12 0 0 1 312 608a160 160 0 0 1 14.72-61.44 418.56 418.56 0 0 1-189.44-160c3.52-12.48 7.36-24.32 11.52-35.84A397.76 397.76 0 0 1 494.08 115.2a115.2 115.2 0 0 1 16.64 6.72C502.08 128 453.76 160 503.36 192a112.96 112.96 0 0 1 45.76 42.24c14.72 34.56-40.96 52.8-64 65.92-144.96 82.88-186.88 83.84-192 128a52.8 52.8 0 0 0 31.36 56z m343.68-19.2a32 32 0 0 0 2.88-12.8c0-18.24-28.8-26.24-38.08-40.96s3.84-28.48 20.8-37.44a394.24 394.24 0 0 1 115.2 436.8c-7.68-96-45.76-84.48-45.76-84.48a122.88 122.88 0 0 1-122.88-193.92c18.88-23.68 55.36-40 67.84-67.2z" p-id="9133"></path></svg>
