<svg t="1653754522654" class="icon" viewBox="0 0 1024 1024" version="1.1" xmlns="http://www.w3.org/2000/svg" p-id="16092" width="300" height="300"><path d="M28.444444 358.4a28.444444 28.444444 0 0 0 28.444445-28.444444V56.888889h275.911111a28.444444 28.444444 0 0 0 0-56.888889H28.444444a28.444444 28.444444 0 0 0-28.444444 28.444444v301.511112a28.444444 28.444444 0 0 0 28.444444 28.444444zM995.555556 0h-304.355556a28.444444 28.444444 0 0 0 0 56.888889H967.111111v273.066667a28.444444 28.444444 0 1 0 56.888889 0V28.444444a28.444444 28.444444 0 0 0-28.444444-28.444444zM332.8 967.111111H56.888889v-273.066667a28.444444 28.444444 0 0 0-56.888889 0v301.511112a28.444444 28.444444 0 0 0 28.444444 28.444444h304.355556a28.444444 28.444444 0 0 0 0-56.888889zM995.555556 665.6a28.444444 28.444444 0 0 0-28.444445 28.444444V967.111111h-275.911111a28.444444 28.444444 0 0 0 0 56.888889h304.355556a28.444444 28.444444 0 0 0 28.444444-28.444444v-301.511112a28.444444 28.444444 0 0 0-28.444444-28.444444zM995.555556 483.555556H28.444444a28.444444 28.444444 0 0 0 0 56.888888h967.111112a28.444444 28.444444 0 0 0 0-56.888888zM160.995556 270.222222a28.444444 28.444444 0 0 0 28.444444 28.444445h645.12a28.444444 28.444444 0 0 0 0-56.888889H189.44a28.444444 28.444444 0 0 0-28.444444 28.444444zM834.56 782.222222a28.444444 28.444444 0 0 0 0-56.888889H189.44a28.444444 28.444444 0 0 0 0 56.888889z" p-id="16093"></path></svg>
