<?xml version="1.0" standalone="no"?><!DOCTYPE svg PUBLIC "-//W3C//DTD SVG 1.1//EN" "http://www.w3.org/Graphics/SVG/1.1/DTD/svg11.dtd"><svg t="1669799268472" class="icon" viewBox="0 0 1024 1024" version="1.1" xmlns="http://www.w3.org/2000/svg" p-id="2444" xmlns:xlink="http://www.w3.org/1999/xlink" width="200" height="200"><path d="M465.82 885.138c-1.155 0-2.32-0.074-3.49-0.224-12.934-1.66-22.889-12.239-23.756-25.251l-36.933-554.004-97.562 325.205c-3.53 11.767-14.483 19.753-26.772 19.44-12.282-0.286-22.86-8.743-25.839-20.662l-35.276-141.103-59.851 59.851c-5.117 5.117-12.058 7.993-19.296 7.993h-46.965c-15.071 0-27.289-12.218-27.289-27.289s12.218-27.289 27.289-27.289h35.662l85.937-85.937c6.951-6.953 17.105-9.629 26.58-7.003 9.474 2.624 16.805 10.143 19.189 19.679l22.884 91.536 112.365-374.55c3.793-12.64 16.081-20.752 29.199-19.276 13.114 1.482 23.287 12.133 24.166 25.3l37.734 566.009 97.010-291.031c3.49-10.47 12.943-17.807 23.952-18.59 11.025-0.787 21.406 5.145 26.341 15.015l69.523 139.046 22.558-45.115c4.622-9.245 14.070-15.085 24.406-15.085h187.86c15.072 0 27.289 12.218 27.289 27.289s-12.217 27.289-27.289 27.289h-170.993l-39.423 78.846c-4.622 9.244-14.070 15.084-24.406 15.084s-19.785-5.84-24.406-15.084l-64.469-128.935-120.064 360.186c-3.75 11.252-14.267 18.66-25.87 18.661z" p-id="2445"></path></svg>