<?xml version="1.0" standalone="no"?><!DOCTYPE svg PUBLIC "-//W3C//DTD SVG 1.1//EN" "http://www.w3.org/Graphics/SVG/1.1/DTD/svg11.dtd"><svg t="1653675211751" class="icon" viewBox="0 0 1024 1024" version="1.1" xmlns="http://www.w3.org/2000/svg" p-id="34397" xmlns:xlink="http://www.w3.org/1999/xlink" width="200" height="200"><defs><style type="text/css">@font-face { font-family: feedback-iconfont; src: url("//at.alicdn.com/t/font_1031158_u69w8yhxdu.woff2?t=1630033759944") format("woff2"), url("//at.alicdn.com/t/font_1031158_u69w8yhxdu.woff?t=1630033759944") format("woff"), url("//at.alicdn.com/t/font_1031158_u69w8yhxdu.ttf?t=1630033759944") format("truetype"); }
</style></defs><path d="M783.36 555.52c-10.24 0-17.92-7.68-17.92-20.48V204.8c0-17.92-12.8-33.28-30.72-33.28H289.28c-17.92 0-30.72 15.36-30.72 33.28v245.76c0 10.24-7.68 20.48-17.92 20.48-10.24 0-17.92-7.68-17.92-20.48V204.8c0-40.96 30.72-74.24 66.56-74.24h445.44c35.84 0 66.56 33.28 66.56 74.24v330.24c0 10.24-10.24 20.48-17.92 20.48z" p-id="34398" fill="#1296db"></path><path d="M337.92 268.8h348.16c10.24 0 17.92-10.24 17.92-20.48s-7.68-20.48-17.92-20.48H337.92c-10.24 0-17.92 10.24-17.92 20.48s7.68 20.48 17.92 20.48z m0 122.88h348.16c10.24 0 17.92-10.24 17.92-20.48s-7.68-20.48-17.92-20.48H337.92c-10.24 0-17.92 10.24-17.92 20.48s7.68 20.48 17.92 20.48zM570.88 512h122.88c5.12 0 7.68-10.24 7.68-20.48s-5.12-20.48-7.68-20.48H570.88c-5.12 0-7.68 10.24-7.68 20.48s2.56 20.48 7.68 20.48z m-268.8 243.2h64l-33.28-89.6z m276.48-99.84H550.4v66.56h28.16c10.24 0 17.92 0 25.6-2.56s12.8-5.12 15.36-10.24c2.56-5.12 5.12-10.24 5.12-20.48s-2.56-17.92-7.68-23.04c-7.68-5.12-20.48-10.24-38.4-10.24z" p-id="34399" fill="#1296db"></path><path d="M832 563.2H545.28l-40.96-58.88c-7.68-12.8-20.48-17.92-35.84-17.92H192c-23.04 0-43.52 20.48-43.52 43.52v320c0 23.04 20.48 43.52 43.52 43.52h640c23.04 0 43.52-20.48 43.52-43.52v-243.2c0-25.6-17.92-43.52-43.52-43.52zM427.52 837.12c-5.12 5.12-10.24 5.12-15.36 5.12-2.56 0-5.12 0-7.68-2.56s-5.12-2.56-5.12-5.12c-2.56-2.56-2.56-5.12-5.12-10.24s-2.56-7.68-5.12-12.8l-10.24-28.16h-87.04l-10.24 28.16c-5.12 10.24-7.68 17.92-10.24 23.04s-7.68 5.12-12.8 5.12-10.24-2.56-15.36-5.12c-5.12-5.12-5.12-7.68-5.12-12.8 0-2.56 0-5.12 2.56-10.24 0-2.56 2.56-7.68 5.12-12.8l56.32-140.8c2.56-5.12 2.56-7.68 5.12-15.36 2.56-5.12 5.12-10.24 7.68-12.8 2.56-2.56 5.12-7.68 10.24-10.24 5.12-2.56 10.24-2.56 15.36-2.56 5.12 0 10.24 0 15.36 2.56 5.12 2.56 7.68 5.12 10.24 7.68 2.56 2.56 5.12 7.68 5.12 12.8 2.56 5.12 5.12 10.24 7.68 17.92l56.32 138.24c5.12 10.24 7.68 17.92 7.68 23.04-7.68 7.68-10.24 12.8-15.36 17.92z m220.16-99.84c-12.8 10.24-33.28 17.92-61.44 17.92h-40.96v61.44c0 7.68-2.56 15.36-5.12 20.48-5.12 5.12-10.24 7.68-15.36 7.68-7.68 0-12.8-2.56-15.36-7.68-5.12-5.12-5.12-10.24-5.12-20.48v-166.4c0-10.24 2.56-15.36 7.68-20.48 5.12-5.12 10.24-5.12 20.48-5.12h56.32c15.36 0 28.16 0 38.4 2.56 7.68 2.56 15.36 7.68 23.04 12.8s10.24 12.8 15.36 20.48c2.56 7.68 5.12 17.92 5.12 28.16-2.56 23.04-7.68 38.4-23.04 48.64z m140.8 79.36c0 7.68-2.56 15.36-5.12 20.48-5.12 5.12-10.24 7.68-15.36 7.68-5.12 0-10.24-2.56-15.36-7.68-5.12-5.12-5.12-10.24-5.12-20.48V647.68c0-7.68 2.56-15.36 5.12-20.48 5.12-5.12 10.24-7.68 15.36-7.68 7.68 0 12.8 2.56 15.36 7.68 5.12 5.12 5.12 10.24 5.12 20.48v168.96z" p-id="34400" fill="#1296db"></path></svg>
