<svg t="1653755297729" class="icon" viewBox="0 0 1024 1024" version="1.1" xmlns="http://www.w3.org/2000/svg" p-id="1086" width="300" height="300"><path d="M864 2.2c-34 2.6-88.2 10.6-120.4 17.8-61.2 13.8-106.6 29.6-160.6 56-126.4 61.6-251.8 183.6-326.8 317.8l-10.6 18.8 182.8 182.8 182.8 182.8 23.4-13c130.2-73 252.2-199 313.4-324.2 28.4-57.8 45.6-109.2 59.2-176.4 11.6-58 15.4-97.2 15.6-163.6l0.2-58-5.6-11.4c-6.2-12.8-14-20.2-27.4-26.4-8.2-3.6-13.6-4-55-4.4-25.2-0.2-57.2 0.4-71 1.4z m-126 175.2c53.4 13 96.2 56.2 109.4 110.2 5 20.4 4.4 53.4-1.2 73.2-14.2 50.6-52 89.8-101.2 105.2-21.6 6.8-55.2 7.8-77 2.2-30-7.6-56.2-22.4-75.4-42.6-68-72.2-48.4-190 39.2-235.4 33.8-17.4 69.8-21.8 106.2-12.8z" p-id="1087"></path><path d="M681.6 235.2c-32.8 7.8-58.2 32.2-66.6 63.6-14.8 54.6 24 109.2 80 112.8 47.6 2.8 87-28.4 95.4-75.6 8-45.8-26-93.2-73.2-101.8-15-2.8-21.2-2.6-35.6 1zM211.2 280c-46.2 3.8-56.8 5.8-69.6 12.2-16.6 8.6-25.8 20-79 100.6-29.2 44-54.8 83.6-57.2 88C2.2 487 1 492.6 1 504c0 13 0.8 16.4 5.8 25.6 7 12.4 17.4 21.4 29.6 25.4 6.8 2.4 82.4 15 89.2 15 1 0 4.8-12.4 8.4-27.6 19.8-82.8 55.2-161.4 108.4-239.8 19-28 18.2-26.6 15.2-26.4-1.4 0.2-22.2 2-46.4 3.8zM211.4 491.8c-15.4 42.8-28.6 99.8-26.8 115.4 2 17.8 5.8 22.4 109.8 126.2 98 97.6 101 100.2 112.2 103.8 10.4 3.2 13.4 3.4 28.8 1 23.2-3.2 64.6-14 92.4-24 12.6-4.6 23.4-8.6 24-9.2 1-1.2-329.8-333-332-333-0.8 0-4.6 8.8-8.4 19.8zM117 688.2c-2.2 1.2-28.6 26.6-58.6 56.6C-0.8 803.8-2.4 805.8 2 821.8c2.6 9.6 13.2 19.4 22.8 21.2 15.2 3 17 1.6 74-54.8 29.6-29.2 54.8-56 56.4-59.6 6.6-15.2 0.8-32-13.2-39-7.8-4-19-4.6-25-1.4zM725 779.4c-81.4 55.4-164.4 92.6-251.4 112.6-10.8 2.4-19.6 5.4-19.6 6.4 0 6.8 12.6 82.2 15 89.2 4 12.2 13 22.6 25.4 29.6 9.2 5 12.6 5.8 25.6 5.8 11.4 0 17-1.2 23.2-4.4 4.6-2.4 44.2-28.2 88-57.2 92.4-61 99.2-67.2 106.6-94.8 1.8-6.8 10.4-100.6 9.4-102-0.2-0.2-10.2 6.4-22.2 14.8zM205 779.2c-8.6 4.4-196.6 192.4-201.2 201.2-2 4.2-3.8 10.2-3.8 13.6 0 10 7 21.4 16 26 9.8 5 18 5 27.6 0.2 4-2.2 51.2-47.8 104.8-101.6 105-105.2 102-101.8 98.8-119.4-3.4-18.4-25.4-28.8-42.2-20zM293 869.8c-3.2 2-29.6 27.4-58.4 56.4-44.2 44.8-52.4 54-53.6 60.2-4.2 22.2 15.4 41.4 36.4 35.8 10.8-3 117.4-109.8 119.6-119.8 2.8-13.8-3.2-27.2-15-33.4-8-4.2-21.8-3.8-29 0.8z" p-id="1088"></path></svg>
