<svg t="1660275395845" class="icon" viewBox="0 0 1024 1024" version="1.1" xmlns="http://www.w3.org/2000/svg" p-id="1800" width="200" height="200"><path d="M73.142857 0h877.714286a73.142857 73.142857 0 0 1 73.142857 73.142857v292.571429a73.142857 73.142857 0 0 1-73.142857 73.142857H73.142857a73.142857 73.142857 0 0 1-73.142857-73.142857V73.142857a73.142857 73.142857 0 0 1 73.142857-73.142857z m109.714286 146.285714a36.571429 36.571429 0 0 0 0 73.142857h219.428571a36.571429 36.571429 0 0 0 0-73.142857h-219.428571zM73.142857 585.142857h877.714286a73.142857 73.142857 0 0 1 73.142857 73.142857v292.571429a73.142857 73.142857 0 0 1-73.142857 73.142857H73.142857a73.142857 73.142857 0 0 1-73.142857-73.142857V658.285714a73.142857 73.142857 0 0 1 73.142857-73.142857z m109.714286 146.285714a36.571429 36.571429 0 1 0 0 73.142858h219.428571a36.571429 36.571429 0 1 0 0-73.142858h-219.428571z" p-id="1801"></path></svg>
