<svg t="1660284302502" class="icon" viewBox="0 0 1024 1024" version="1.1" xmlns="http://www.w3.org/2000/svg" p-id="1714" width="200" height="200"><path d="M601.024 99.584a32 32 0 0 0-8.064 63.488 380.384 380.384 0 0 1 175.68 69.952c-115.744 26.336-150.944 106.048-158.336 175.008-10.72 99.68 60.224 151.968 107.168 186.56 16.48 12.16 41.376 30.528 42.528 39.104 0.16 1.248-0.992 5.408-6.56 12.416-61.056 76.96-83.808 140.832-67.552 189.952 4.96 14.912 15.296 32.896 36.288 47.84A381.856 381.856 0 0 1 544 928c-3.008 0-5.952-0.352-8.96-0.416 40.096-67.392 25.728-118.304 3.424-151.104-54.08-79.488-134.912-104.128-211.04-64.192-5.28 2.848-9.6 1.696-34.4-21.632-24.448-23.04-63.232-58.944-120.032-48.32-5.024-19.2-8.992-38.88-11.04-59.2a32.128 32.128 0 0 0-35.072-28.64c-17.568 1.792-30.4 17.472-28.64 35.072A446.496 446.496 0 0 0 544 992c247.04 0 448-200.96 448-448 0-225.024-168.064-416.064-390.976-444.416zM195.072 704.32c18.368 0.704 33.12 13.216 54.08 32.928 24 22.624 60.352 56.672 108 31.712 63.328-33.28 107.616 12.992 128.384 43.488 8.128 11.936 28.896 42.592-22.432 106.752a381.856 381.856 0 0 1-268.032-214.88z m589.344 138.656c-20.992-6.016-33.824-15.072-37.824-27.072-8.544-25.76 12.736-74.368 56.928-129.984 15.872-20 22.56-40.416 19.872-60.672-4.736-35.52-35.456-58.176-68-82.144-43.392-32-88.288-65.056-81.504-128.192 5.536-51.264 28.288-118.336 156.704-126.112A383.232 383.232 0 0 1 928 544c0 120.768-56.16 228.544-143.584 298.976z" p-id="1715"></path><path d="M266.464 599.68a32 32 0 0 0 43.072 0C456.544 466.016 528 358.816 528 272 528 139.648 420.352 32 288 32S48 139.648 48 272c0 86.816 71.456 194.016 218.464 327.68zM288 96c97.056 0 176 78.944 176 176 0 43.872-31.232 124.128-176 260.416C143.232 396.128 112 315.872 112 272 112 174.944 190.944 96 288 96z" p-id="1716"></path><path d="M288 272m-80 0a80 80 0 1 0 160 0 80 80 0 1 0-160 0Z" p-id="1717"></path></svg>
